<svg xmlns="http://www.w3.org/2000/svg" xmlns:xlink="http://www.w3.org/1999/xlink" width="100" height="100" x="0" y="0" version="1.1" viewBox="0 0 100 100" xml:space="preserve"><g id="_x37_7_Essential_Icons"><path id="Menu" d="M50 12c-21 0-38 17-38 38s17 38 38 38 38-17 38-38-17-38-38-38zm0 72c-18.8 0-34-15.2-34-34s15.2-34 34-34 34 15.2 34 34-15.2 34-34 34zm19.5-34c0 1.1-.9 2-2 2h-35c-1.1 0-2-.9-2-2s.9-2 2-2h35c1.1 0 2 .9 2 2zm0 12c0 1.1-.9 2-2 2h-35c-1.1 0-2-.9-2-2s.9-2 2-2h35c1.1 0 2 .9 2 2zm0-24c0 1.1-.9 2-2 2h-35c-1.1 0-2-.9-2-2s.9-2 2-2h35c1.1 0 2 .9 2 2z"/></g><g id="Info"><path id="BORDER" fill="#00F" d="M384-1210V474h-1784v-1684H384m8-8h-1800V482H392v-1700z"/></g><metadata><rdf:RDF xmlns:dc="http://purl.org/dc/elements/1.1/" xmlns:rdf="http://www.w3.org/1999/02/22-rdf-syntax-ns#" xmlns:rdfs="http://www.w3.org/2000/01/rdf-schema#"><rdf:Description about="https://iconscout.com/legal#licenses" dc:date="2017-09-15" dc:description="essential,s,menu" dc:format="image/svg+xml" dc:language="en" dc:publisher="Iconscout" dc:title="essential,s,menu"><dc:creator><rdf:Bag><rdf:li>Bryn Taylor</rdf:li></rdf:Bag></dc:creator></rdf:Description></rdf:RDF></metadata></svg>